<svg width="24" height="24" viewBox="0 0 24 24" fill="none" xmlns="http://www.w3.org/2000/svg">
<path d="M22.7812 0.28125H1.21875C0.700195 0.28125 0.28125 0.700195 0.28125 1.21875V22.7812C0.28125 23.2998 0.700195 23.7188 1.21875 23.7188H22.7812C23.2998 23.7188 23.7188 23.2998 23.7188 22.7812V1.21875C23.7188 0.700195 23.2998 0.28125 22.7812 0.28125ZM17.2148 15.2812H15.8408C15.542 15.2812 15.2578 15.1377 15.082 14.8945L12 10.6348L8.91797 14.8945C8.74219 15.1377 8.46094 15.2812 8.15918 15.2812H6.78516C6.59473 15.2812 6.4834 15.0645 6.59473 14.9092L11.8096 7.70215C11.9033 7.57324 12.0938 7.57324 12.1875 7.70215L17.4023 14.9092C17.5166 15.0645 17.4053 15.2812 17.2148 15.2812Z" fill="#2B6CB0"/>
</svg>